{
    "asset" : {
        "generator" : "Khronos glTF Blender I/O v1.6.16",
        "version" : "2.0"
    },
    "scene" : 0,
    "scenes" : [
        {
            "name" : "Scene",
            "nodes" : [
                0,
                1,
                2,
                3,
                4
            ]
        }
    ],
    "nodes" : [
        {
            "name" : "Light",
            "rotation" : [
                0.16907575726509094,
                0.7558803558349609,
                -0.27217137813568115,
                0.570947527885437
            ],
            "translation" : [
                4.076245307922363,
                5.903861999511719,
                -1.0054539442062378
            ]
        },
        {
            "name" : "Camera",
            "rotation" : [
                0.483536034822464,
                0.33687159419059753,
                -0.20870360732078552,
                0.7804827094078064
            ],
            "translation" : [
                7.358891487121582,
                4.958309173583984,
                6.925790786743164
            ]
        },
        {
            "mesh" : 0,
            "name" : "Circle.009",
            "rotation" : [
                0,
                0,
                -0.7071067690849304,
                0.7071068286895752
            ],
            "translation" : [
                -1.9535517692565918,
                3.5945615768432617,
                -2.5904130935668945
            ]
        },
        {
            "mesh" : 1,
            "name" : "Cube.043",
            "translation" : [
                -5.298666954040527,
                -1.163464069366455,
                0
            ]
        },
        {
            "mesh" : 2,
            "name" : "Cube.044",
            "translation" : [
                -5.298666954040527,
                4.066912651062012,
                0.10543619841337204
            ]
        }
    ],
    "materials" : [
        {
            "doubleSided" : true,
            "name" : "Material.040",
            "normalTexture" : {
                "index" : 0
            },
            "pbrMetallicRoughness" : {
                "baseColorTexture" : {
                    "index" : 1
                },
                "metallicFactor" : 0,
                "metallicRoughnessTexture" : {
                    "index" : 2
                }
            }
        },
        {
            "doubleSided" : true,
            "name" : "Material.041",
            "pbrMetallicRoughness" : {
                "baseColorTexture" : {
                    "index" : 3
                },
                "metallicFactor" : 0,
                "roughnessFactor" : 0.5
            }
        },
        {
            "doubleSided" : true,
            "name" : "Material.042",
            "pbrMetallicRoughness" : {
                "baseColorTexture" : {
                    "index" : 4
                },
                "metallicFactor" : 0,
                "roughnessFactor" : 0.5
            }
        }
    ],
    "meshes" : [
        {
            "name" : "Circle.009",
            "primitives" : [
                {
                    "attributes" : {
                        "POSITION" : 0,
                        "NORMAL" : 1,
                        "TEXCOORD_0" : 2
                    },
                    "indices" : 3,
                    "material" : 0
                }
            ]
        },
        {
            "name" : "Cube.039",
            "primitives" : [
                {
                    "attributes" : {
                        "POSITION" : 4,
                        "NORMAL" : 5,
                        "TEXCOORD_0" : 6
                    },
                    "indices" : 7,
                    "material" : 1
                }
            ]
        },
        {
            "name" : "Cube.040",
            "primitives" : [
                {
                    "attributes" : {
                        "POSITION" : 8,
                        "NORMAL" : 9,
                        "TEXCOORD_0" : 10
                    },
                    "indices" : 11,
                    "material" : 2
                }
            ]
        }
    ],
    "textures" : [
        {
            "sampler" : 0,
            "source" : 0
        },
        {
            "sampler" : 0,
            "source" : 1
        },
        {
            "sampler" : 0,
            "source" : 2
        },
        {
            "sampler" : 0,
            "source" : 3
        },
        {
            "sampler" : 0,
            "source" : 3
        }
    ],
    "images" : [
        {
            "bufferView" : 4,
            "mimeType" : "image/png",
            "name" : "TexturesCom_Plastic_Polypropylene_512_normal"
        },
        {
            "bufferView" : 5,
            "mimeType" : "image/png",
            "name" : "TexturesCom_Plastic_Polypropylene_512_albedo"
        },
        {
            "bufferView" : 6,
            "mimeType" : "image/png",
            "name" : "TexturesCom_Plastic_Polypropylene_512_roughness"
        },
        {
            "bufferView" : 11,
            "mimeType" : "image/png",
            "name" : "TexturesCom_Plaster_Plain_512_albedo"
        }
    ],
    "accessors" : [
        {
            "bufferView" : 0,
            "componentType" : 5126,
            "count" : 1121,
            "max" : [
                8.160604476928711,
                1.0947645902633667,
                5.688529968261719
            ],
            "min" : [
                -1.0461316108703613,
                -8.037742614746094,
                -0.45577383041381836
            ],
            "type" : "VEC3"
        },
        {
            "bufferView" : 1,
            "componentType" : 5126,
            "count" : 1121,
            "type" : "VEC3"
        },
        {
            "bufferView" : 2,
            "componentType" : 5126,
            "count" : 1121,
            "type" : "VEC2"
        },
        {
            "bufferView" : 3,
            "componentType" : 5123,
            "count" : 2568,
            "type" : "SCALAR"
        },
        {
            "bufferView" : 7,
            "componentType" : 5126,
            "count" : 23064,
            "max" : [
                4.013792037963867,
                1,
                2.867150068283081
            ],
            "min" : [
                -4.308162689208984,
                -1,
                -2.7422523498535156
            ],
            "type" : "VEC3"
        },
        {
            "bufferView" : 8,
            "componentType" : 5126,
            "count" : 23064,
            "type" : "VEC3"
        },
        {
            "bufferView" : 9,
            "componentType" : 5126,
            "count" : 23064,
            "type" : "VEC2"
        },
        {
            "bufferView" : 10,
            "componentType" : 5123,
            "count" : 34596,
            "type" : "SCALAR"
        },
        {
            "bufferView" : 12,
            "componentType" : 5126,
            "count" : 23064,
            "max" : [
                4.013792037963867,
                0.13363170623779297,
                2.867150068283081
            ],
            "min" : [
                -4.308162689208984,
                -1,
                -2.7422523498535156
            ],
            "type" : "VEC3"
        },
        {
            "bufferView" : 13,
            "componentType" : 5126,
            "count" : 23064,
            "type" : "VEC3"
        },
        {
            "bufferView" : 14,
            "componentType" : 5126,
            "count" : 23064,
            "type" : "VEC2"
        },
        {
            "bufferView" : 15,
            "componentType" : 5123,
            "count" : 34596,
            "type" : "SCALAR"
        }
    ],
    "bufferViews" : [
        {
            "buffer" : 0,
            "byteLength" : 13452,
            "byteOffset" : 0
        },
        {
            "buffer" : 0,
            "byteLength" : 13452,
            "byteOffset" : 13452
        },
        {
            "buffer" : 0,
            "byteLength" : 8968,
            "byteOffset" : 26904
        },
        {
            "buffer" : 0,
            "byteLength" : 5136,
            "byteOffset" : 35872
        },
        {
            "buffer" : 0,
            "byteLength" : 194666,
            "byteOffset" : 41008
        },
        {
            "buffer" : 0,
            "byteLength" : 163164,
            "byteOffset" : 235676
        },
        {
            "buffer" : 0,
            "byteLength" : 206275,
            "byteOffset" : 398840
        },
        {
            "buffer" : 0,
            "byteLength" : 276768,
            "byteOffset" : 605116
        },
        {
            "buffer" : 0,
            "byteLength" : 276768,
            "byteOffset" : 881884
        },
        {
            "buffer" : 0,
            "byteLength" : 184512,
            "byteOffset" : 1158652
        },
        {
            "buffer" : 0,
            "byteLength" : 69192,
            "byteOffset" : 1343164
        },
        {
            "buffer" : 0,
            "byteLength" : 282577,
            "byteOffset" : 1412356
        },
        {
            "buffer" : 0,
            "byteLength" : 276768,
            "byteOffset" : 1694936
        },
        {
            "buffer" : 0,
            "byteLength" : 276768,
            "byteOffset" : 1971704
        },
        {
            "buffer" : 0,
            "byteLength" : 184512,
            "byteOffset" : 2248472
        },
        {
            "buffer" : 0,
            "byteLength" : 69192,
            "byteOffset" : 2432984
        }
    ],
    "samplers" : [
        {
            "magFilter" : 9729,
            "minFilter" : 9987
        }
    ],
    "buffers" : [
        {
            "byteLength" : 2502176,
            "uri" : "data:application/octet-stream;base64,"
        }
    ]
}
