{
    "asset" : {
        "generator" : "Khronos glTF Blender I/O v1.6.16",
        "version" : "2.0"
    },
    "scene" : 0,
    "scenes" : [
        {
            "name" : "Scene",
            "nodes" : [
                0,
                1,
                2,
                3,
                4,
                5,
                6
            ]
        }
    ],
    "nodes" : [
        {
            "name" : "Light",
            "rotation" : [
                0.16907575726509094,
                0.7558803558349609,
                -0.27217137813568115,
                0.570947527885437
            ],
            "translation" : [
                4.076245307922363,
                5.903861999511719,
                -1.0054539442062378
            ]
        },
        {
            "name" : "Camera",
            "rotation" : [
                0.483536034822464,
                0.33687159419059753,
                -0.20870360732078552,
                0.7804827094078064
            ],
            "translation" : [
                7.358891487121582,
                4.958309173583984,
                6.925790786743164
            ]
        },
        {
            "mesh" : 0,
            "name" : "Circle.020",
            "scale" : [
                0.09948789328336716,
                0.09948789328336716,
                0.09948789328336716
            ],
            "translation" : [
                0.86624675989151,
                -1.8116960525512695,
                4.542759895324707
            ]
        },
        {
            "mesh" : 1,
            "name" : "Cube.071",
            "translation" : [
                0,
                -0.6422057151794434,
                -3.494950294494629
            ]
        },
        {
            "mesh" : 2,
            "name" : "Cube.072",
            "translation" : [
                0,
                -0.6522105932235718,
                0
            ]
        },
        {
            "mesh" : 3,
            "name" : "Mball.001",
            "scale" : [
                1.3985954523086548,
                0.5936092734336853,
                1.9923036098480225
            ],
            "translation" : [
                -1.8872753381729126,
                -0.2663356065750122,
                0.6236828565597534
            ]
        },
        {
            "mesh" : 4,
            "name" : "Mball.002",
            "scale" : [
                1.1840147972106934,
                0.277586966753006,
                0.37970682978630066
            ],
            "translation" : [
                -1.8872753381729126,
                0.40534406900405884,
                -2.21878719329834
            ]
        }
    ],
    "materials" : [
        {
            "doubleSided" : true,
            "name" : "Material.011",
            "pbrMetallicRoughness" : {
                "baseColorTexture" : {
                    "index" : 0
                },
                "metallicFactor" : 0,
                "roughnessFactor" : 0.5
            }
        },
        {
            "doubleSided" : true,
            "name" : "Material.022",
            "normalTexture" : {
                "index" : 1
            },
            "pbrMetallicRoughness" : {
                "baseColorTexture" : {
                    "index" : 2
                },
                "metallicFactor" : 0,
                "roughnessFactor" : 0.5
            }
        },
        {
            "doubleSided" : true,
            "name" : "Material.023",
            "normalTexture" : {
                "index" : 3
            },
            "pbrMetallicRoughness" : {
                "baseColorTexture" : {
                    "index" : 4
                },
                "metallicFactor" : 0,
                "roughnessFactor" : 0.5
            }
        },
        {
            "doubleSided" : true,
            "name" : "Material.024",
            "normalTexture" : {
                "index" : 5
            },
            "pbrMetallicRoughness" : {
                "baseColorTexture" : {
                    "index" : 6
                },
                "metallicFactor" : 0,
                "roughnessFactor" : 0.5
            }
        },
        {
            "doubleSided" : true,
            "name" : "Material.025",
            "normalTexture" : {
                "index" : 7
            },
            "pbrMetallicRoughness" : {
                "baseColorTexture" : {
                    "index" : 8
                },
                "metallicFactor" : 0,
                "roughnessFactor" : 0.5
            }
        }
    ],
    "meshes" : [
        {
            "name" : "Circle.018",
            "primitives" : [
                {
                    "attributes" : {
                        "POSITION" : 0,
                        "NORMAL" : 1,
                        "TEXCOORD_0" : 2
                    },
                    "indices" : 3,
                    "material" : 0
                }
            ]
        },
        {
            "name" : "Cube.061",
            "primitives" : [
                {
                    "attributes" : {
                        "POSITION" : 4,
                        "NORMAL" : 5,
                        "TEXCOORD_0" : 6
                    },
                    "indices" : 7,
                    "material" : 1
                }
            ]
        },
        {
            "name" : "Cube.062",
            "primitives" : [
                {
                    "attributes" : {
                        "POSITION" : 8,
                        "NORMAL" : 9,
                        "TEXCOORD_0" : 10
                    },
                    "indices" : 11,
                    "material" : 2
                }
            ]
        },
        {
            "name" : "Mesh",
            "primitives" : [
                {
                    "attributes" : {
                        "POSITION" : 12,
                        "NORMAL" : 13
                    },
                    "indices" : 14,
                    "material" : 3
                }
            ]
        },
        {
            "name" : "Mesh.001",
            "primitives" : [
                {
                    "attributes" : {
                        "POSITION" : 15,
                        "NORMAL" : 16
                    },
                    "indices" : 14,
                    "material" : 4
                }
            ]
        }
    ],
    "textures" : [
        {
            "sampler" : 0,
            "source" : 0
        },
        {
            "sampler" : 0,
            "source" : 1
        },
        {
            "sampler" : 0,
            "source" : 2
        },
        {
            "sampler" : 0,
            "source" : 1
        },
        {
            "sampler" : 0,
            "source" : 2
        },
        {
            "sampler" : 0,
            "source" : 3
        },
        {
            "sampler" : 0,
            "source" : 4
        },
        {
            "sampler" : 0,
            "source" : 3
        },
        {
            "sampler" : 0,
            "source" : 4
        }
    ],
    "images" : [
        {
            "bufferView" : 4,
            "mimeType" : "image/jpeg",
            "name" : "Metal036_1K_Color"
        },
        {
            "bufferView" : 9,
            "mimeType" : "image/png",
            "name" : "TexturesCom_Leather_Plain11_008x008_512_height"
        },
        {
            "bufferView" : 10,
            "mimeType" : "image/png",
            "name" : "TexturesCom_Leather_Plain11_008x008_512_albedo"
        },
        {
            "bufferView" : 18,
            "mimeType" : "image/png",
            "name" : "TexturesCom_Plaster_Plain_512_height"
        },
        {
            "bufferView" : 19,
            "mimeType" : "image/png",
            "name" : "TexturesCom_Plaster_Plain_512_albedo.tif"
        }
    ],
    "accessors" : [
        {
            "bufferView" : 0,
            "componentType" : 5126,
            "count" : 540,
            "max" : [
                0.9993908405303955,
                1.627945065498352,
                0.9975640773773193
            ],
            "min" : [
                -56.309513092041016,
                0,
                -90.44749450683594
            ],
            "type" : "VEC3"
        },
        {
            "bufferView" : 1,
            "componentType" : 5126,
            "count" : 540,
            "type" : "VEC3"
        },
        {
            "bufferView" : 2,
            "componentType" : 5126,
            "count" : 540,
            "type" : "VEC2"
        },
        {
            "bufferView" : 3,
            "componentType" : 5123,
            "count" : 3168,
            "type" : "SCALAR"
        },
        {
            "bufferView" : 5,
            "componentType" : 5126,
            "count" : 16029,
            "max" : [
                1,
                2.466932773590088,
                -0.08836936950683594
            ],
            "min" : [
                -4.78671407699585,
                -1,
                -1
            ],
            "type" : "VEC3"
        },
        {
            "bufferView" : 6,
            "componentType" : 5126,
            "count" : 16029,
            "type" : "VEC3"
        },
        {
            "bufferView" : 7,
            "componentType" : 5126,
            "count" : 16029,
            "type" : "VEC2"
        },
        {
            "bufferView" : 8,
            "componentType" : 5123,
            "count" : 93636,
            "type" : "SCALAR"
        },
        {
            "bufferView" : 11,
            "componentType" : 5126,
            "count" : 16047,
            "max" : [
                1,
                -0.14866936206817627,
                4.751832962036133
            ],
            "min" : [
                -4.785633087158203,
                -0.9890264272689819,
                -3.58518385887146
            ],
            "type" : "VEC3"
        },
        {
            "bufferView" : 12,
            "componentType" : 5126,
            "count" : 16047,
            "type" : "VEC3"
        },
        {
            "bufferView" : 13,
            "componentType" : 5126,
            "count" : 16047,
            "type" : "VEC2"
        },
        {
            "bufferView" : 14,
            "componentType" : 5123,
            "count" : 93636,
            "type" : "SCALAR"
        },
        {
            "bufferView" : 15,
            "componentType" : 5126,
            "count" : 424,
            "max" : [
                2.133310556411743,
                1.1509599685668945,
                2.1333107948303223
            ],
            "min" : [
                -2.133310556411743,
                -1.1509599685668945,
                -2.1333107948303223
            ],
            "type" : "VEC3"
        },
        {
            "bufferView" : 16,
            "componentType" : 5126,
            "count" : 424,
            "type" : "VEC3"
        },
        {
            "bufferView" : 17,
            "componentType" : 5123,
            "count" : 2532,
            "type" : "SCALAR"
        },
        {
            "bufferView" : 20,
            "componentType" : 5126,
            "count" : 424,
            "max" : [
                2.133310556411743,
                1.1509599685668945,
                2.1333107948303223
            ],
            "min" : [
                -2.133310556411743,
                -1.1509599685668945,
                -2.1333107948303223
            ],
            "type" : "VEC3"
        },
        {
            "bufferView" : 21,
            "componentType" : 5126,
            "count" : 424,
            "type" : "VEC3"
        }
    ],
    "bufferViews" : [
        {
            "buffer" : 0,
            "byteLength" : 6480,
            "byteOffset" : 0
        },
        {
            "buffer" : 0,
            "byteLength" : 6480,
            "byteOffset" : 6480
        },
        {
            "buffer" : 0,
            "byteLength" : 4320,
            "byteOffset" : 12960
        },
        {
            "buffer" : 0,
            "byteLength" : 6336,
            "byteOffset" : 17280
        },
        {
            "buffer" : 0,
            "byteLength" : 581920,
            "byteOffset" : 23616
        },
        {
            "buffer" : 0,
            "byteLength" : 192348,
            "byteOffset" : 605536
        },
        {
            "buffer" : 0,
            "byteLength" : 192348,
            "byteOffset" : 797884
        },
        {
            "buffer" : 0,
            "byteLength" : 128232,
            "byteOffset" : 990232
        },
        {
            "buffer" : 0,
            "byteLength" : 187272,
            "byteOffset" : 1118464
        },
        {
            "buffer" : 0,
            "byteLength" : 288195,
            "byteOffset" : 1305736
        },
        {
            "buffer" : 0,
            "byteLength" : 54012,
            "byteOffset" : 1593932
        },
        {
            "buffer" : 0,
            "byteLength" : 192564,
            "byteOffset" : 1647944
        },
        {
            "buffer" : 0,
            "byteLength" : 192564,
            "byteOffset" : 1840508
        },
        {
            "buffer" : 0,
            "byteLength" : 128376,
            "byteOffset" : 2033072
        },
        {
            "buffer" : 0,
            "byteLength" : 187272,
            "byteOffset" : 2161448
        },
        {
            "buffer" : 0,
            "byteLength" : 5088,
            "byteOffset" : 2348720
        },
        {
            "buffer" : 0,
            "byteLength" : 5088,
            "byteOffset" : 2353808
        },
        {
            "buffer" : 0,
            "byteLength" : 5064,
            "byteOffset" : 2358896
        },
        {
            "buffer" : 0,
            "byteLength" : 97727,
            "byteOffset" : 2363960
        },
        {
            "buffer" : 0,
            "byteLength" : 282577,
            "byteOffset" : 2461688
        },
        {
            "buffer" : 0,
            "byteLength" : 5088,
            "byteOffset" : 2744268
        },
        {
            "buffer" : 0,
            "byteLength" : 5088,
            "byteOffset" : 2749356
        }
    ],
    "samplers" : [
        {
            "magFilter" : 9729,
            "minFilter" : 9987
        }
    ],
    "buffers" : [
        {
            "byteLength" : 2754444,
            "uri" : "data:application/octet-stream;base64,"
        }
    ]
}
