{
    "asset" : {
        "generator" : "Khronos glTF Blender I/O v1.6.16",
        "version" : "2.0"
    },
    "scene" : 0,
    "scenes" : [
        {
            "name" : "Scene",
            "nodes" : [
                0,
                1,
                2,
                3,
                4,
                5
            ]
        }
    ],
    "nodes" : [
        {
            "name" : "Light",
            "rotation" : [
                0.16907575726509094,
                0.7558803558349609,
                -0.27217137813568115,
                0.570947527885437
            ],
            "translation" : [
                2.1060194969177246,
                7.2836408615112305,
                -0.2271723747253418
            ]
        },
        {
            "name" : "Camera",
            "rotation" : [
                0.450146347284317,
                -0.5455207228660583,
                0.43990328907966614,
                0.5534082651138306
            ],
            "translation" : [
                -22.004779815673828,
                5.690186023712158,
                0.3780097961425781
            ]
        },
        {
            "mesh" : 0,
            "name" : "Cubo.001",
            "rotation" : [
                0,
                -1,
                0,
                7.549790126404332e-08
            ],
            "scale" : [
                1.299484133720398,
                1.1777783632278442,
                1.2284244298934937
            ],
            "translation" : [
                1.817699670791626,
                -1.1389155387878418,
                -0.12628817558288574
            ]
        },
        {
            "name" : "Vac\u00edo",
            "rotation" : [
                0.5,
                0.5,
                -0.5,
                0.4999999701976776
            ],
            "scale" : [
                2,
                2,
                2
            ]
        },
        {
            "name" : "Vac\u00edo.001",
            "rotation" : [
                0,
                0.7071067094802856,
                -0.7071068286895752,
                -3.0908616110991716e-08
            ],
            "scale" : [
                2,
                2,
                2
            ],
            "translation" : [
                -1.8767449855804443,
                0,
                3.6779699325561523
            ]
        },
        {
            "mesh" : 1,
            "name" : "Cubo.002",
            "rotation" : [
                0,
                -1,
                0,
                7.549790126404332e-08
            ],
            "scale" : [
                1.298609733581543,
                0.7616154551506042,
                0.7943659424781799
            ],
            "translation" : [
                1.817699670791626,
                -1.1389155387878418,
                -0.12628817558288574
            ]
        }
    ],
    "materials" : [
        {
            "doubleSided" : true,
            "name" : "Material.001",
            "normalTexture" : {
                "index" : 0
            },
            "pbrMetallicRoughness" : {
                "baseColorTexture" : {
                    "index" : 1
                },
                "metallicFactor" : 0,
                "metallicRoughnessTexture" : {
                    "index" : 2
                }
            }
        },
        {
            "doubleSided" : true,
            "name" : "Material.003",
            "pbrMetallicRoughness" : {
                "baseColorFactor" : [
                    0.16616998612880707,
                    0.16616998612880707,
                    0.16616998612880707,
                    1
                ],
                "metallicFactor" : 0.7153846025466919,
                "roughnessFactor" : 0.5
            }
        }
    ],
    "meshes" : [
        {
            "name" : "Cubo.001",
            "primitives" : [
                {
                    "attributes" : {
                        "POSITION" : 0,
                        "NORMAL" : 1,
                        "TEXCOORD_0" : 2
                    },
                    "indices" : 3,
                    "material" : 0
                }
            ]
        },
        {
            "name" : "Cubo.002",
            "primitives" : [
                {
                    "attributes" : {
                        "POSITION" : 4,
                        "NORMAL" : 5,
                        "TEXCOORD_0" : 6
                    },
                    "indices" : 7,
                    "material" : 1
                }
            ]
        }
    ],
    "textures" : [
        {
            "sampler" : 0,
            "source" : 0
        },
        {
            "sampler" : 0,
            "source" : 1
        },
        {
            "sampler" : 0,
            "source" : 2
        }
    ],
    "images" : [
        {
            "bufferView" : 4,
            "mimeType" : "image/png",
            "name" : "2"
        },
        {
            "bufferView" : 5,
            "mimeType" : "image/png",
            "name" : "1"
        },
        {
            "bufferView" : 6,
            "mimeType" : "image/png",
            "name" : "3"
        }
    ],
    "accessors" : [
        {
            "bufferView" : 0,
            "componentType" : 5126,
            "count" : 256,
            "max" : [
                2.1853601932525635,
                4.968710899353027,
                2.889155387878418
            ],
            "min" : [
                -3.0636203289031982,
                -1.5700304508209229,
                -2.8575730323791504
            ],
            "type" : "VEC3"
        },
        {
            "bufferView" : 1,
            "componentType" : 5126,
            "count" : 256,
            "type" : "VEC3"
        },
        {
            "bufferView" : 2,
            "componentType" : 5126,
            "count" : 256,
            "type" : "VEC2"
        },
        {
            "bufferView" : 3,
            "componentType" : 5123,
            "count" : 384,
            "type" : "SCALAR"
        },
        {
            "bufferView" : 7,
            "componentType" : 5126,
            "count" : 72,
            "max" : [
                2.3688602447509766,
                0.09656256437301636,
                0.8517756462097168
            ],
            "min" : [
                2.159184455871582,
                -0.29350584745407104,
                -0.9106926918029785
            ],
            "type" : "VEC3"
        },
        {
            "bufferView" : 8,
            "componentType" : 5126,
            "count" : 72,
            "type" : "VEC3"
        },
        {
            "bufferView" : 9,
            "componentType" : 5126,
            "count" : 72,
            "type" : "VEC2"
        },
        {
            "bufferView" : 10,
            "componentType" : 5123,
            "count" : 108,
            "type" : "SCALAR"
        }
    ],
    "bufferViews" : [
        {
            "buffer" : 0,
            "byteLength" : 3072,
            "byteOffset" : 0
        },
        {
            "buffer" : 0,
            "byteLength" : 3072,
            "byteOffset" : 3072
        },
        {
            "buffer" : 0,
            "byteLength" : 2048,
            "byteOffset" : 6144
        },
        {
            "buffer" : 0,
            "byteLength" : 768,
            "byteOffset" : 8192
        },
        {
            "buffer" : 0,
            "byteLength" : 98408,
            "byteOffset" : 8960
        },
        {
            "buffer" : 0,
            "byteLength" : 227550,
            "byteOffset" : 107368
        },
        {
            "buffer" : 0,
            "byteLength" : 229734,
            "byteOffset" : 334920
        },
        {
            "buffer" : 0,
            "byteLength" : 864,
            "byteOffset" : 564656
        },
        {
            "buffer" : 0,
            "byteLength" : 864,
            "byteOffset" : 565520
        },
        {
            "buffer" : 0,
            "byteLength" : 576,
            "byteOffset" : 566384
        },
        {
            "buffer" : 0,
            "byteLength" : 216,
            "byteOffset" : 566960
        }
    ],
    "samplers" : [
        {
            "magFilter" : 9729,
            "minFilter" : 9987
        }
    ],
    "buffers" : [
        {
            "byteLength" : 567176,
            "uri" : "data:application/octet-stream;base64,"
        }
    ]
}
