{
    "asset" : {
        "generator" : "Khronos glTF Blender I/O v1.6.16",
        "version" : "2.0"
    },
    "scene" : 0,
    "scenes" : [
        {
            "name" : "Scene",
            "nodes" : [
                0,
                1,
                2
            ]
        }
    ],
    "nodes" : [
        {
            "name" : "Light",
            "rotation" : [
                0.16907575726509094,
                0.7558803558349609,
                -0.27217137813568115,
                0.570947527885437
            ],
            "translation" : [
                4.076245307922363,
                5.903861999511719,
                -1.0054539442062378
            ]
        },
        {
            "name" : "Camera",
            "rotation" : [
                0.483536034822464,
                0.33687159419059753,
                -0.20870360732078552,
                0.7804827094078064
            ],
            "translation" : [
                7.358891487121582,
                4.958309173583984,
                6.925790786743164
            ]
        },
        {
            "mesh" : 0,
            "name" : "Cube.045",
            "translation" : [
                0,
                4.307504177093506,
                0
            ]
        }
    ],
    "materials" : [
        {
            "doubleSided" : true,
            "name" : "Material.001",
            "pbrMetallicRoughness" : {
                "baseColorTexture" : {
                    "index" : 0
                },
                "metallicFactor" : 0,
                "metallicRoughnessTexture" : {
                    "index" : 1
                }
            }
        },
        {
            "doubleSided" : true,
            "name" : "Material.003",
            "pbrMetallicRoughness" : {
                "baseColorTexture" : {
                    "index" : 2
                },
                "metallicFactor" : 0,
                "roughnessFactor" : 0.5
            }
        },
        {
            "doubleSided" : true,
            "name" : "Material.002",
            "pbrMetallicRoughness" : {
                "baseColorTexture" : {
                    "index" : 3
                },
                "metallicFactor" : 0,
                "roughnessFactor" : 0.5
            }
        },
        {
            "doubleSided" : true,
            "name" : "Material.004",
            "pbrMetallicRoughness" : {
                "baseColorTexture" : {
                    "index" : 4
                },
                "metallicFactor" : 0,
                "roughnessFactor" : 0.5
            }
        }
    ],
    "meshes" : [
        {
            "name" : "Cube.028",
            "primitives" : [
                {
                    "attributes" : {
                        "POSITION" : 0,
                        "NORMAL" : 1,
                        "TEXCOORD_0" : 2
                    },
                    "indices" : 3,
                    "material" : 0
                },
                {
                    "attributes" : {
                        "POSITION" : 4,
                        "NORMAL" : 5,
                        "TEXCOORD_0" : 6
                    },
                    "indices" : 7,
                    "material" : 1
                },
                {
                    "attributes" : {
                        "POSITION" : 8,
                        "NORMAL" : 9,
                        "TEXCOORD_0" : 10
                    },
                    "indices" : 11,
                    "material" : 2
                },
                {
                    "attributes" : {
                        "POSITION" : 12,
                        "NORMAL" : 13,
                        "TEXCOORD_0" : 14
                    },
                    "indices" : 15,
                    "material" : 3
                }
            ]
        }
    ],
    "textures" : [
        {
            "sampler" : 0,
            "source" : 0
        },
        {
            "sampler" : 0,
            "source" : 1
        },
        {
            "sampler" : 0,
            "source" : 0
        },
        {
            "sampler" : 0,
            "source" : 0
        },
        {
            "sampler" : 0,
            "source" : 0
        }
    ],
    "images" : [
        {
            "bufferView" : 4,
            "mimeType" : "image/png",
            "name" : "TexturesCom_Wood_MapleVeneer_512_albedo (1)"
        },
        {
            "bufferView" : 5,
            "mimeType" : "image/png",
            "name" : "TexturesCom_Wood_MapleVeneer_512_roughness (1)"
        }
    ],
    "accessors" : [
        {
            "bufferView" : 0,
            "componentType" : 5126,
            "count" : 132,
            "max" : [
                1,
                -0.7872490882873535,
                1.9166626930236816
            ],
            "min" : [
                -1,
                -4.27524471282959,
                -1.9415984153747559
            ],
            "type" : "VEC3"
        },
        {
            "bufferView" : 1,
            "componentType" : 5126,
            "count" : 132,
            "type" : "VEC3"
        },
        {
            "bufferView" : 2,
            "componentType" : 5126,
            "count" : 132,
            "type" : "VEC2"
        },
        {
            "bufferView" : 3,
            "componentType" : 5123,
            "count" : 228,
            "type" : "SCALAR"
        },
        {
            "bufferView" : 6,
            "componentType" : 5126,
            "count" : 132,
            "max" : [
                1,
                -4.291659355163574,
                1.9166626930236816
            ],
            "min" : [
                -1,
                -7.7796549797058105,
                -1.9415984153747559
            ],
            "type" : "VEC3"
        },
        {
            "bufferView" : 7,
            "componentType" : 5126,
            "count" : 132,
            "type" : "VEC3"
        },
        {
            "bufferView" : 8,
            "componentType" : 5126,
            "count" : 132,
            "type" : "VEC2"
        },
        {
            "bufferView" : 9,
            "componentType" : 5123,
            "count" : 228,
            "type" : "SCALAR"
        },
        {
            "bufferView" : 10,
            "componentType" : 5126,
            "count" : 134,
            "max" : [
                1,
                -2.5199851989746094,
                -1.1107585430145264
            ],
            "min" : [
                -1,
                -6.007980823516846,
                -4.969019889831543
            ],
            "type" : "VEC3"
        },
        {
            "bufferView" : 11,
            "componentType" : 5126,
            "count" : 134,
            "type" : "VEC3"
        },
        {
            "bufferView" : 12,
            "componentType" : 5126,
            "count" : 134,
            "type" : "VEC2"
        },
        {
            "bufferView" : 13,
            "componentType" : 5123,
            "count" : 228,
            "type" : "SCALAR"
        },
        {
            "bufferView" : 14,
            "componentType" : 5126,
            "count" : 126,
            "max" : [
                1,
                -2.490781784057617,
                4.875942230224609
            ],
            "min" : [
                -1,
                -5.9787774085998535,
                1.017681360244751
            ],
            "type" : "VEC3"
        },
        {
            "bufferView" : 15,
            "componentType" : 5126,
            "count" : 126,
            "type" : "VEC3"
        },
        {
            "bufferView" : 16,
            "componentType" : 5126,
            "count" : 126,
            "type" : "VEC2"
        },
        {
            "bufferView" : 17,
            "componentType" : 5123,
            "count" : 228,
            "type" : "SCALAR"
        }
    ],
    "bufferViews" : [
        {
            "buffer" : 0,
            "byteLength" : 1584,
            "byteOffset" : 0
        },
        {
            "buffer" : 0,
            "byteLength" : 1584,
            "byteOffset" : 1584
        },
        {
            "buffer" : 0,
            "byteLength" : 1056,
            "byteOffset" : 3168
        },
        {
            "buffer" : 0,
            "byteLength" : 456,
            "byteOffset" : 4224
        },
        {
            "buffer" : 0,
            "byteLength" : 280694,
            "byteOffset" : 4680
        },
        {
            "buffer" : 0,
            "byteLength" : 166907,
            "byteOffset" : 285376
        },
        {
            "buffer" : 0,
            "byteLength" : 1584,
            "byteOffset" : 452284
        },
        {
            "buffer" : 0,
            "byteLength" : 1584,
            "byteOffset" : 453868
        },
        {
            "buffer" : 0,
            "byteLength" : 1056,
            "byteOffset" : 455452
        },
        {
            "buffer" : 0,
            "byteLength" : 456,
            "byteOffset" : 456508
        },
        {
            "buffer" : 0,
            "byteLength" : 1608,
            "byteOffset" : 456964
        },
        {
            "buffer" : 0,
            "byteLength" : 1608,
            "byteOffset" : 458572
        },
        {
            "buffer" : 0,
            "byteLength" : 1072,
            "byteOffset" : 460180
        },
        {
            "buffer" : 0,
            "byteLength" : 456,
            "byteOffset" : 461252
        },
        {
            "buffer" : 0,
            "byteLength" : 1512,
            "byteOffset" : 461708
        },
        {
            "buffer" : 0,
            "byteLength" : 1512,
            "byteOffset" : 463220
        },
        {
            "buffer" : 0,
            "byteLength" : 1008,
            "byteOffset" : 464732
        },
        {
            "buffer" : 0,
            "byteLength" : 456,
            "byteOffset" : 465740
        }
    ],
    "samplers" : [
        {
            "magFilter" : 9729,
            "minFilter" : 9987
        }
    ],
    "buffers" : [
        {
            "byteLength" : 466196,
            "uri" : "data:application/octet-stream;base64,"
        }
    ]
}
