{
    "asset" : {
        "generator" : "Khronos glTF Blender I/O v1.6.16",
        "version" : "2.0"
    },
    "scene" : 0,
    "scenes" : [
        {
            "name" : "Scene",
            "nodes" : [
                0,
                1,
                2,
                3,
                4,
                5
            ]
        }
    ],
    "nodes" : [
        {
            "name" : "Light",
            "rotation" : [
                0.16907575726509094,
                0.7558803558349609,
                -0.27217137813568115,
                0.570947527885437
            ],
            "translation" : [
                -2.984868049621582,
                7.773943901062012,
                -3.779762029647827
            ]
        },
        {
            "name" : "Camera",
            "rotation" : [
                0.464011013507843,
                0.47609883546829224,
                -0.3347121477127075,
                0.6678259372711182
            ],
            "scale" : [
                1.5694959163665771,
                1.5694961547851562,
                1.5694957971572876
            ],
            "translation" : [
                18.768203735351562,
                11.003719329833984,
                5.2718353271484375
            ]
        },
        {
            "name" : "Vac\u00edo.009",
            "rotation" : [
                0.5,
                0.5,
                -0.5,
                0.4999999701976776
            ],
            "scale" : [
                2,
                2,
                2
            ]
        },
        {
            "name" : "Vac\u00edo.010",
            "rotation" : [
                0,
                0.7071067094802856,
                -0.7071068286895752,
                -3.0908616110991716e-08
            ],
            "scale" : [
                2,
                2,
                2
            ],
            "translation" : [
                -3.859074115753174,
                0,
                3.7569773197174072
            ]
        },
        {
            "name" : "Vac\u00edo.011",
            "scale" : [
                2,
                2,
                2
            ],
            "translation" : [
                -3.7152369022369385,
                -4.986298084259033,
                -0.4507484436035156
            ]
        },
        {
            "mesh" : 0,
            "name" : "C\u00edrculo B\u00e9zier.001",
            "scale" : [
                0.5,
                0.5,
                0.5
            ],
            "translation" : [
                -3.7195258140563965,
                3.608671188354492,
                -0.9413207769393921
            ]
        }
    ],
    "materials" : [
        {
            "doubleSided" : true,
            "name" : "Material.002",
            "normalTexture" : {
                "index" : 0
            },
            "pbrMetallicRoughness" : {
                "baseColorTexture" : {
                    "index" : 1
                },
                "metallicFactor" : 0.17272727191448212,
                "metallicRoughnessTexture" : {
                    "index" : 2
                }
            }
        },
        {
            "doubleSided" : true,
            "name" : "Material.001",
            "normalTexture" : {
                "index" : 3,
                "scale" : 0.7999999523162842
            },
            "pbrMetallicRoughness" : {
                "baseColorTexture" : {
                    "index" : 4
                },
                "metallicFactor" : 0,
                "metallicRoughnessTexture" : {
                    "index" : 5
                }
            }
        }
    ],
    "meshes" : [
        {
            "name" : "C\u00edrculo B\u00e9zier.001",
            "primitives" : [
                {
                    "attributes" : {
                        "POSITION" : 0,
                        "NORMAL" : 1,
                        "TEXCOORD_0" : 2,
                        "TEXCOORD_1" : 3
                    },
                    "indices" : 4,
                    "material" : 0
                },
                {
                    "attributes" : {
                        "POSITION" : 5,
                        "NORMAL" : 6,
                        "TEXCOORD_0" : 7,
                        "TEXCOORD_1" : 8
                    },
                    "indices" : 9,
                    "material" : 1
                }
            ]
        }
    ],
    "textures" : [
        {
            "sampler" : 0,
            "source" : 0
        },
        {
            "sampler" : 0,
            "source" : 1
        },
        {
            "sampler" : 0,
            "source" : 2
        },
        {
            "sampler" : 0,
            "source" : 3
        },
        {
            "sampler" : 0,
            "source" : 4
        },
        {
            "sampler" : 0,
            "source" : 5
        }
    ],
    "images" : [
        {
            "bufferView" : 5,
            "mimeType" : "image/png",
            "name" : "TexturesCom_Metal_PaintedGun_512_normal"
        },
        {
            "bufferView" : 6,
            "mimeType" : "image/png",
            "name" : "TexturesCom_Metal_PaintedGun_512_albedo"
        },
        {
            "bufferView" : 7,
            "mimeType" : "image/png",
            "name" : "TexturesCom_Metal_PaintedGun_512_roughness"
        },
        {
            "bufferView" : 13,
            "mimeType" : "image/png",
            "name" : "TexturesCom_Wood_MapleVeneer_512_normal"
        },
        {
            "bufferView" : 14,
            "mimeType" : "image/png",
            "name" : "TexturesCom_Wood_MapleVeneer_512_albedo"
        },
        {
            "bufferView" : 15,
            "mimeType" : "image/png",
            "name" : "TexturesCom_Wood_MapleVeneer_512_roughness"
        }
    ],
    "accessors" : [
        {
            "bufferView" : 0,
            "componentType" : 5126,
            "count" : 1010,
            "max" : [
                3.1071956157684326,
                2.480745315551758,
                3.2131567001342773
            ],
            "min" : [
                -3.3301408290863037,
                -5.145066738128662,
                -2.963355302810669
            ],
            "type" : "VEC3"
        },
        {
            "bufferView" : 1,
            "componentType" : 5126,
            "count" : 1010,
            "type" : "VEC3"
        },
        {
            "bufferView" : 2,
            "componentType" : 5126,
            "count" : 1010,
            "type" : "VEC2"
        },
        {
            "bufferView" : 3,
            "componentType" : 5126,
            "count" : 1010,
            "type" : "VEC2"
        },
        {
            "bufferView" : 4,
            "componentType" : 5123,
            "count" : 4302,
            "type" : "SCALAR"
        },
        {
            "bufferView" : 8,
            "componentType" : 5126,
            "count" : 244,
            "max" : [
                3.4424519538879395,
                2.684814929962158,
                3.4989898204803467
            ],
            "min" : [
                -3.8269124031066895,
                2.438605546951294,
                -3.3519904613494873
            ],
            "type" : "VEC3"
        },
        {
            "bufferView" : 9,
            "componentType" : 5126,
            "count" : 244,
            "type" : "VEC3"
        },
        {
            "bufferView" : 10,
            "componentType" : 5126,
            "count" : 244,
            "type" : "VEC2"
        },
        {
            "bufferView" : 11,
            "componentType" : 5126,
            "count" : 244,
            "type" : "VEC2"
        },
        {
            "bufferView" : 12,
            "componentType" : 5123,
            "count" : 858,
            "type" : "SCALAR"
        }
    ],
    "bufferViews" : [
        {
            "buffer" : 0,
            "byteLength" : 12120,
            "byteOffset" : 0
        },
        {
            "buffer" : 0,
            "byteLength" : 12120,
            "byteOffset" : 12120
        },
        {
            "buffer" : 0,
            "byteLength" : 8080,
            "byteOffset" : 24240
        },
        {
            "buffer" : 0,
            "byteLength" : 8080,
            "byteOffset" : 32320
        },
        {
            "buffer" : 0,
            "byteLength" : 8604,
            "byteOffset" : 40400
        },
        {
            "buffer" : 0,
            "byteLength" : 158286,
            "byteOffset" : 49004
        },
        {
            "buffer" : 0,
            "byteLength" : 144260,
            "byteOffset" : 207292
        },
        {
            "buffer" : 0,
            "byteLength" : 192722,
            "byteOffset" : 351552
        },
        {
            "buffer" : 0,
            "byteLength" : 2928,
            "byteOffset" : 544276
        },
        {
            "buffer" : 0,
            "byteLength" : 2928,
            "byteOffset" : 547204
        },
        {
            "buffer" : 0,
            "byteLength" : 1952,
            "byteOffset" : 550132
        },
        {
            "buffer" : 0,
            "byteLength" : 1952,
            "byteOffset" : 552084
        },
        {
            "buffer" : 0,
            "byteLength" : 1716,
            "byteOffset" : 554036
        },
        {
            "buffer" : 0,
            "byteLength" : 4435,
            "byteOffset" : 555752
        },
        {
            "buffer" : 0,
            "byteLength" : 280694,
            "byteOffset" : 560188
        },
        {
            "buffer" : 0,
            "byteLength" : 166907,
            "byteOffset" : 840884
        }
    ],
    "samplers" : [
        {
            "magFilter" : 9729,
            "minFilter" : 9987
        }
    ],
    "buffers" : [
        {
            "byteLength" : 1007792,
            "uri" : "data:application/octet-stream;base64,"
        }
    ]
}
